<svg width="1968" height="734" viewBox="0 0 1968 734" fill="none" xmlns="http://www.w3.org/2000/svg">
<rect width="1968" height="734" rx="32" fill="#D1CECE"/>
<rect x="189" y="133" width="180" height="180" rx="25" fill="black"/>
<rect x="189" y="421" width="180" height="180" rx="25" fill="black"/>
<rect x="424" y="421" width="180" height="180" rx="25" fill="#393939"/>
<rect x="659" y="421" width="180" height="180" rx="25" fill="#818181"/>
<rect x="894" y="421" width="180" height="180" rx="25" fill="#A3A3A3"/>
<rect x="1129" y="421" width="180" height="180" rx="25" fill="#E6E6E6"/>
<rect x="1364" y="421" width="180" height="180" rx="25" fill="#F5F5F5"/>
<rect x="1599" y="421" width="180" height="180" rx="25" fill="white"/>
<rect x="424" y="133" width="180" height="180" rx="25" fill="#150050"/>
<rect x="659" y="133" width="180" height="180" rx="25" fill="#3F0071"/>
<rect x="894" y="133" width="180" height="180" rx="25" fill="#610094"/>
<rect x="1599" y="133" width="180" height="180" rx="25" fill="#ECDCF9"/>
<rect x="1364" y="133" width="180" height="180" rx="25" fill="#D0A8F0"/>
<rect x="1129" y="133" width="180" height="180" rx="25" fill="#B373E7"/>
</svg>
